<?xml version="1.0" encoding="UTF-8" standalone="no"?>
<!-- Created with Inkscape (http://www.inkscape.org/) -->

<svg
   width="355"
   height="90"
   viewBox="0 0 93.927082 23.812501"
   version="1.1"
   id="svg5"
   inkscape:version="1.1 (c68e22c387, 2021-05-23)"
   sodipodi:docname="Encabezado.svg"
   inkscape:export-filename="\\wsl$\Ubuntu\home\incognia\FONDESO\IdentidadGrafica\PNG\Encabezado.png"
   inkscape:export-xdpi="150"
   inkscape:export-ydpi="150"
   xmlns:inkscape="http://www.inkscape.org/namespaces/inkscape"
   xmlns:sodipodi="http://sodipodi.sourceforge.net/DTD/sodipodi-0.dtd"
   xmlns="http://www.w3.org/2000/svg"
   xmlns:svg="http://www.w3.org/2000/svg">
  <sodipodi:namedview
     id="namedview7"
     pagecolor="#ffffff"
     bordercolor="#999999"
     borderopacity="1"
     inkscape:pageshadow="0"
     inkscape:pageopacity="0"
     inkscape:pagecheckerboard="0"
     inkscape:document-units="px"
     showgrid="false"
     units="px"
     inkscape:zoom="0.85449219"
     inkscape:cx="-141.01943"
     inkscape:cy="15.798857"
     inkscape:window-width="1920"
     inkscape:window-height="1057"
     inkscape:window-x="-8"
     inkscape:window-y="-8"
     inkscape:window-maximized="1"
     inkscape:current-layer="layer1"
     showguides="true"
     inkscape:guide-bbox="true">
    <sodipodi:guide
       position="27.777063,60.697971"
       orientation="0,-1"
       id="guide2815" />
    <sodipodi:guide
       position="28.01197,50.951005"
       orientation="0,-1"
       id="guide2817" />
  </sodipodi:namedview>
  <defs
     id="defs2" />
  <g
     inkscape:label="Capa 1"
     inkscape:groupmode="layer"
     id="layer1">
    <g
       id="g511"
       transform="matrix(0.05483374,0,0,0.05483374,3.9646894,4.9588056)"
       style="fill:none;stroke-width:4.8252">
      <path
         d="M 207.382,21.9703 H 24.2 V 144.218 c 0,67.123 91.591,87.307 91.591,87.307 0,0 91.591,-20.184 91.591,-87.307 z m -4.285,4.6652 V 144.218 c 0,14.377 -4.665,27.516 -13.234,39.227 -7.331,9.711 -17.423,18.28 -29.895,25.611 -19.423,11.615 -39.226,16.661 -43.796,17.804 -4.285,-1.143 -24.0881,-6.189 -43.4155,-17.804 C 59.9985,201.725 49.9063,192.775 42.4801,183.445 33.5304,171.734 28.8652,158.5 28.8652,144.218 V 26.6355 Z"
         fill="#ab8d5d"
         id="path11"
         style="stroke-width:11.0497" />
      <path
         d="M 137.879,61.1963 V 49.8665 h -11.615 v 10.473 h -4.665 v -10.473 h -11.997 v 10.473 h -3.903 V 49.8665 H 94.0833 v 11.2346 l 5.8077,9.7113 c 0.381,0.3809 0.381,0.7617 0.381,1.1425 v 51.3181 h 5.427 v -18.661 c 0,-4.285 5.046,-8.1884 10.473,-8.1884 5.427,0 10.473,3.9034 10.473,8.1884 v 18.661 h 5.807 V 103.85 c 0,0 0,0 0,-0.381 V 93.7578 86.8075 83.6656 72.0502 c 0,-0.3809 0,-0.7617 0.381,-1.1426 z"
         fill="#ab8d5d"
         id="path13"
         style="stroke-width:11.0497" />
      <path
         d="m 95.2258,124.796 v -17.043 l -1.9041,1.143 c -0.7617,0.381 -1.5234,0.381 -2.2851,0 l -2.761,-1.523 c 0,0 0,0 0,0.38 v 6.57 c 0,0.762 -0.3808,1.142 -0.7617,1.523 0.3809,0 0.3809,0.381 0.7617,0.381 3.1419,2.285 3.1419,5.808 2.761,8.569 -0.0952,0 4.1892,0 4.1892,0 z"
         fill="#ab8d5d"
         id="path15"
         style="stroke-width:11.0497" />
      <path
         d="m 115.791,101.089 c -3.523,0 -5.808,2.285 -5.808,3.903 v 18.661 h 11.616 v -18.661 c 0,-1.142 -2.285,-3.903 -5.808,-3.903 z"
         fill="#ab8d5d"
         id="path17"
         style="stroke-width:11.0497" />
      <path
         d="m 47.1452,124.796 c -0.7616,-1.523 -1.1425,-3.142 -1.5233,-5.046 -0.3808,-3.523 -0.3808,-6.95 -0.3808,-6.95 0,-0.762 0.7616,-1.905 1.5233,-1.905 l 5.0461,-1.523 -5.4269,-3.904 c -0.7617,-0.38 -0.7617,-1.142 -0.7617,-1.904 v -6.1883 c 0,-0.7617 0.3808,-1.5233 1.1425,-1.9042 l 2.285,-1.1425 v -2.4754 l -1.9042,-0.7617 c -0.7616,-0.3808 -1.5233,-1.1425 -1.5233,-1.9042 v -7.3311 c 0,-1.1425 1.1425,-2.285 2.285,-2.285 h 6.9503 c 0,-1.9041 0,-4.2844 0.3808,-6.5694 0.7617,-2.761 2.285,-5.8077 3.1419,-7.3311 l -0.3809,-2.761 c 0,-0.7617 0,-1.1425 0.3809,-1.9042 0.3808,-0.3808 1.1425,-0.7617 1.5233,-0.7617 h 3.9036 c 0.3808,0 0.7617,0 1.1425,0.3809 l 9.3305,5.8077 h 4.2844 c 0.7616,0 1.1425,0.3808 1.5233,0.7617 0.3808,0.3808 0.7617,1.1425 0.7617,1.5233 l -0.3809,7.3311 c 0,0.7617 -0.3808,1.1425 -0.7616,1.5233 h 2.761 c 0.7617,0 1.1425,0.3809 1.5234,0.7617 l 1.1425,1.1425 0.7616,-0.7616 1.5234,-3.5228 c 0.3808,-0.7616 1.1425,-1.1425 1.9042,-1.1425 h 5.9029 V 72.8118 L 89.418,63.1005 C 89.0371,62.7197 89.0371,62.3388 89.0371,61.958 V 47.9623 c 0,-1.1425 1.1425,-2.285 2.2851,-2.285 h 14.3768 4.665 11.996 4.665 13.996 c 1.143,0 2.285,1.1425 2.285,2.285 V 61.958 c 0,0.3808 0,0.7617 -0.381,1.1425 l -5.807,9.7113 v 1.1425 h 5.807 c 0.762,0 1.524,0.3808 1.905,1.1425 l 1.523,3.5227 0.762,0.7617 1.142,-1.1425 c 0.381,-0.3808 1.143,-0.7617 1.523,-0.7617 h 2.761 c -0.38,-0.3808 -0.761,-0.7616 -0.761,-1.5233 l -0.381,-7.3311 c 0,-0.7617 0.381,-1.1425 0.762,-1.5233 0.38,-0.3809 1.142,-0.7617 1.523,-0.7617 h 4.284 l 9.331,-5.8077 c 0.381,-0.3809 0.761,-0.3809 1.142,-0.3809 h 3.904 c 0.762,0 1.142,0.3809 1.523,0.7617 0.381,0.3808 0.762,1.1425 0.381,1.9042 l -0.381,2.761 c 0.762,1.5234 2.285,4.2844 3.142,7.3311 0.381,1.9042 0.381,4.6652 0.381,6.5694 h 6.95 c 1.143,0 2.285,1.1425 2.285,2.285 v 7.3311 c 0,0.7617 -0.381,1.5234 -1.523,1.9042 l -2.285,0.7617 v 1.9041 l 2.285,1.1426 c 0.762,0.3808 1.142,1.1425 1.142,1.9041 v 6.1888 c 0,0.761 -0.38,1.523 -0.761,1.904 l -5.427,3.904 5.046,1.523 c 0.762,0.381 1.523,1.142 1.523,1.904 0,0 0,3.523 -0.381,6.95 -0.38,1.904 -0.761,3.904 -1.523,5.046 h 8.188 V 37.4893 H 38.9573 v 86.9257 h 8.1879 z"
         fill="#ab8d5d"
         id="path19"
         style="stroke-width:11.0497" />
      <path
         d="m 143.306,116.227 c 0.381,0 0.381,-0.381 0.762,-0.381 -0.381,-0.381 -0.762,-1.142 -0.762,-1.523 v -6.57 c 0,0 0,0 0,-0.38 l -2.761,1.523 c -0.761,0.381 -1.523,0.381 -2.285,0 l -1.904,-1.143 v 17.043 h 4.665 c -0.761,-2.761 -0.38,-6.189 2.285,-8.569 z"
         fill="#ab8d5d"
         id="path21"
         style="stroke-width:11.0497" />
      <path
         d="m 173.202,171.353 c -1.143,0 -2.285,-1.143 -2.285,-2.285 v -14.757 c 0,-1.143 -0.762,-2.285 -1.523,-3.523 -0.762,-0.762 -2.285,-1.904 -4.666,-1.904 -3.522,0 -5.427,2.761 -5.807,5.427 v 14.662 c 0,0.761 -0.381,1.142 -0.762,1.523 -0.381,0.381 -1.143,0.762 -1.523,0.762 h -13.615 c -1.143,0 -2.285,-1.143 -2.285,-2.285 v -14.758 c 0,-1.142 -0.762,-2.285 -1.524,-3.522 -0.761,-0.762 -2.285,-1.905 -4.665,-1.905 -1.523,0 -2.761,0.381 -3.903,1.524 l 10.853,56.268 c 15.519,-6.95 33.8,-18.28 43.796,-35.322 -0.095,0.095 -12.091,0.095 -12.091,0.095 z"
         fill="#ab8d5d"
         id="path23"
         style="stroke-width:11.0497" />
      <path
         d="m 137.498,208.199 -15.519,-78.738 h -12.377 l -15.5187,78.738 v 0.381 c 10.8537,4.284 19.4227,6.569 21.7077,7.331 2.285,-0.762 11.235,-3.047 21.707,-7.712 z"
         fill="#ab8d5d"
         id="path25"
         style="stroke-width:11.0497" />
      <path
         d="m 100.653,150.407 c -1.1429,-0.762 -2.2854,-1.523 -3.904,-1.523 -2.285,0 -3.5227,1.142 -4.6652,1.904 -1.1425,1.142 -1.5234,2.285 -1.5234,3.523 v 14.662 c 0,1.142 -1.1425,2.285 -2.285,2.285 H 74.6606 c -0.7617,0 -1.1425,-0.381 -1.5234,-0.762 -0.3808,-0.381 -0.7616,-1.142 -0.7616,-1.523 v -14.758 c -0.3809,-2.761 -2.2851,-5.427 -5.8078,-5.427 -2.285,0 -3.5227,1.143 -4.6652,1.905 -1.1425,1.142 -1.5234,2.285 -1.5234,3.522 v 14.758 c 0,1.142 -1.1425,2.285 -2.285,2.285 H 46.2883 c 9.7113,17.423 28.2771,28.753 43.4153,35.322 z"
         fill="#ab8d5d"
         id="path27"
         style="stroke-width:11.0497" />
      <path
         d="m 192.625,129.08 h -65.98 l 3.142,16.662 c 1.523,-0.762 3.142,-1.143 4.665,-1.143 3.142,0 5.808,1.143 7.712,3.142 1.904,2 3.142,4.285 3.142,6.57 v 12.377 h 8.949 v -12.377 c 0,0 0,0 0,-0.381 0.381,-5.427 5.046,-9.331 10.092,-9.712 3.142,0 5.808,1.143 7.712,3.142 1.905,1.905 3.142,4.285 3.142,6.57 v 12.377 h 12.377 c 3.142,-6.569 5.047,-14.377 5.047,-22.85 V 129.08 c 0,0 0.38,0 0,0 z"
         fill="#ab8d5d"
         id="path29"
         style="stroke-width:11.0497" />
      <path
         d="m 55.9997,166.688 v -12.377 c 0,-2.285 1.1425,-4.666 3.1419,-6.57 1.9041,-1.904 5.046,-3.142 7.7119,-3.142 5.4269,0 9.7113,4.285 10.0921,9.712 0,0 0,0 0,0.38 v 12.378 h 9.3305 v -12.378 c 0,-2.285 1.1425,-4.665 3.1419,-6.569 1.9994,-1.904 5.046,-3.142 7.7119,-3.142 1.5233,0 3.1421,0.381 4.6651,1.143 l 3.142,-16.662 H 38.9573 v 14.757 c 0,8.569 1.9042,16.281 5.046,22.851 z"
         fill="#ab8d5d"
         id="path31"
         style="stroke-width:11.0497" />
      <path
         d="m 61.4265,120.131 h 3.5227 c 0.3809,0.38 0.3809,1.142 0.3809,1.523 0,0.381 0,0.762 0,0.762 0,0.761 0,1.523 -0.3809,2.285 H 52.5721 c -1.9042,-1.143 -2.7611,-6.189 -2.7611,-10.473 l 5.4269,-1.428 c 0.7617,-0.381 1.5234,-1.143 1.5234,-2.285 v -2.285 c 0,-0.762 -0.3809,-1.524 -0.7617,-1.905 l -6.1886,-4.284 v -3.9036 l 2.285,-1.1425 c 0.7617,-0.3809 1.1426,-1.1426 1.1426,-1.9042 v -5.0461 c 0,-0.7617 -0.3809,-1.5233 -1.5234,-1.9042 L 49.811,87.3788 v -4.094 h 5.8078 l 2.761,4.6652 v 6.5694 l -1.9041,6.1886 c -0.3809,0.762 0,1.523 0.3808,1.904 0.3808,0.381 1.1425,0.762 1.9042,0.762 h 1.5233 c 1.1425,0 1.9042,-0.762 2.285,-1.904 0,-1.143 0.7617,-3.9039 1.1425,-5.0464 0.3809,-1.1425 1.9042,-3.1419 3.1419,-4.2844 0.7617,-0.7617 0.7617,-1.9042 0,-3.1419 l -7.7119,-8.9496 c 0,-1.1425 -0.3808,-4.6653 0,-6.5694 0.3808,-2.285 2.285,-5.4269 2.7611,-6.5694 0.3808,-0.3809 0.3808,-1.1426 0.3808,-1.5234 v -0.7617 h 0.3808 l 9.3305,5.8078 c 0.3808,0.3808 0.7617,0.3808 1.1425,0.3808 h 2.285 v 3.5227 l -3.1419,1.1426 c -0.7616,0 -1.5233,0.7616 -1.5233,1.9041 v 2.285 c 0,1.1426 1.1425,2.2851 2.285,2.2851 h 7.7119 l 1.9042,1.9041 c 0.7617,0.7617 1.9042,0.7617 3.1419,0.3809 0,0 3.5227,-2.7611 3.5227,-3.1419 l 1.1425,-2.7611 h 4.7605 v 5.4269 2.7611 c 0,0 -8.188,2.761 -8.9497,3.1419 -0.3808,0.3808 -0.7616,2.761 -0.7616,3.5227 0,0.7617 0,0.7617 0.7616,1.5233 0,0 2.285,1.9042 3.1419,2.2851 l 2.285,-2.2851 3.1419,0.3809 v 7.7123 l -3.1419,1.904 -9.3304,-6.5696 c -1.1425,-0.7617 -2.285,-0.3809 -3.1419,0.3808 l -1.5234,1.9038 c -0.7616,0.762 -0.7616,2.285 0.3809,3.142 l 5.4269,5.046 v 4.285 l -5.0461,1.523 c -0.7617,0.381 -1.1425,1.143 -1.1425,1.904 v 0.762 c 0,1.142 1.1425,2.285 2.285,2.285 h 6.5694 c 1.1425,1.523 0.7617,3.523 0.3809,4.665 h -15.043 c -0.3809,-0.381 -0.7617,-1.523 -0.7617,-2.761 0,-0.381 0,-0.381 0,-0.762 0,-1.523 0,-3.141 0.3808,-3.903 l 3.5227,-4.665 c 0.3809,-0.381 0.3809,-0.762 0.3809,-1.143 v -2.285 c 0,-0.762 -0.3809,-1.523 -0.7617,-1.904 -1.1425,0.381 -1.9042,0.381 -2.761,0.381 l -5.8078,2.285 c -0.7617,0.381 -1.1425,0.761 -1.5233,1.904 l -0.3809,2.285 -3.1419,1.142 c -0.7616,0 -1.5233,0.762 -1.5233,1.905 v 0.761 c 0,1.714 1.1425,2.857 2.285,2.857 z"
         fill="#ab8d5d"
         id="path33"
         style="stroke-width:11.0497" />
      <path
         d="m 170.06,120.131 h -3.428 c -0.38,0.38 -0.38,1.142 -0.38,1.523 0,0.381 0,0.762 0,0.762 0,0.761 0,1.523 0.38,2.285 h 12.758 c 1.905,-1.143 2.761,-6.189 2.761,-10.473 l -5.426,-1.524 c -0.762,-0.381 -1.524,-1.142 -1.524,-2.285 v -2.285 c 0,-0.761 0.381,-1.523 0.762,-1.904 l 6.188,-4.284 v -3.9038 l -2.285,-1.1426 c -0.761,-0.3808 -1.142,-1.1425 -1.142,-1.9041 v -5.0461 c 0,-0.7617 0.381,-1.5233 1.523,-1.9042 l 1.904,-0.7616 v -3.9988 h -5.807 l -3.142,4.6652 v 6.5694 l 1.904,6.1886 c 0.381,0.762 0,1.523 -0.381,1.904 -0.381,0.381 -1.142,0.762 -1.904,0.762 h -1.523 c -1.143,0 -1.905,-0.762 -2.285,-1.904 0,-1.143 -0.762,-3.9039 -1.143,-5.0464 -0.381,-1.1425 -1.904,-3.1419 -3.142,-4.2844 -0.761,-0.7617 -0.761,-1.9042 0,-3.1419 l 7.712,-8.9496 c 0,-1.1425 0.381,-4.6653 0,-6.5694 -0.381,-2.285 -2.285,-5.4269 -2.761,-6.5694 -0.381,-0.3809 -0.381,-1.1426 -0.381,-1.5234 v -0.7617 h -0.381 l -8.949,5.8078 c -0.381,0.3808 -0.762,0.3808 -1.143,0.3808 h -2.666 v 3.5227 l 3.142,1.1426 c 0.762,0.3808 1.524,1.1425 1.524,2.285 v 2.285 c 0,1.1425 -1.143,2.285 -2.285,2.285 h -7.712 l -1.904,1.5233 c -0.762,0.7617 -1.905,0.7617 -3.142,0.3809 0,0 -3.523,-2.7611 -3.523,-3.1419 l -1.143,-2.7611 h -4.665 v 5.4269 2.7611 c 0,0 8.188,2.761 8.95,3.1419 0.381,0.3808 0.761,2.761 0.761,3.5227 0,0.7617 0,0.7617 -0.761,1.5233 0,0 -2.285,1.9042 -3.142,2.2851 l -2.285,-2.2851 -3.142,0.3809 v 7.7123 l 3.142,1.904 9.33,-6.5696 c 1.143,-0.7617 2.285,-0.3809 3.142,0.3808 l 1.524,1.9038 c 0.761,0.762 0.761,2.285 -0.381,3.142 l -5.427,5.046 v 4.285 l 5.427,2.285 c 0.761,0.381 1.142,1.142 1.142,1.904 v 0.762 c 0,1.142 -1.142,2.285 -2.285,2.285 h -6.76 c -1.142,1.523 -0.761,3.522 -0.38,4.665 h 15.138 c 0.381,-0.381 0.761,-1.523 0.761,-2.761 0,-0.381 0,-0.381 0,-0.762 0,-1.523 0,-3.142 -0.38,-3.903 l -3.523,-4.666 c -0.381,-0.381 -0.381,-0.761 -0.381,-1.142 v -2.285 c 0,-0.762 0.381,-1.524 0.762,-1.904 0.761,-0.381 1.523,-0.381 2.285,-0.381 l 5.807,2.285 c 0.762,0.381 1.143,0.761 1.524,1.904 l 0.381,2.285 3.142,1.142 c 0.761,0.381 1.523,1.143 1.523,2.286 v 0.761 c 0.095,1.333 -0.667,2.476 -2.285,2.476 z"
         fill="#ab8d5d"
         id="path35"
         style="stroke-width:11.0497" />
      <path
         d="m 344.673,139.934 c 1.142,1.904 3.142,2.761 5.427,2.761 3.523,0 5.427,-3.142 5.427,-3.142 l 55.887,-71.0256 c 4.666,-4.6653 8.95,-0.7617 8.95,-0.7617 4.284,4.6652 1.142,8.9496 1.142,8.9496 l -12.377,15.8999 c -1.142,1.1425 -1.523,2.7611 -1.523,4.2844 0,1.5234 0.381,2.7611 1.523,3.9034 l 12.377,15.9 39.227,-50.0798 -15.519,-20.1843 -2.762,-3.9036 c -2.761,-3.5227 -8.187,-4.6652 -8.187,-4.6652 h -23.708 c -6.188,0 -9.711,4.2844 -9.711,4.2844 L 334.486,126.7 Z"
         fill="#75293d"
         id="path37"
         style="stroke-width:11.0497" />
      <path
         d="M 342.007,96.4236 326.488,76.2393 c -3.142,-5.0461 1.523,-8.9496 1.523,-8.9496 5.808,-3.5228 9.331,1.9041 9.331,1.9041 l 13.234,16.6616 15.519,-19.8035 -17.804,-22.8501 c -4.285,-6.1886 -10.854,-5.0461 -10.854,-5.0461 H 316.11 c -6.95,0 -9.711,4.2844 -9.711,4.2844 l -18.661,23.707 39.226,50.0799 z"
         fill="#75293d"
         id="path39"
         style="stroke-width:11.0497" />
      <path
         d="m 402.846,113.561 c 0,0 -1.905,-2.761 -5.427,-2.761 -3.523,0 -5.046,2.285 -5.046,2.285 l -55.888,72.168 c -4.665,5.047 -9.331,1.143 -9.331,1.143 -4.284,-4.665 -0.761,-8.95 -0.761,-8.95 l 12.377,-16.28 c 1.142,-1.143 1.523,-2.761 1.523,-4.285 0,-1.523 -0.381,-2.761 -1.523,-3.903 l -12.377,-15.9 -39.607,50.46 22.088,27.897 h 34.561 l 69.407,-88.83 z"
         fill="#75293d"
         id="path41"
         style="stroke-width:11.0497" />
      <path
         d="m 405.607,156.976 15.9,20.566 c 3.522,5.046 -0.762,8.949 -0.762,8.949 -6.189,4.285 -9.711,-1.904 -9.711,-1.904 l -13.234,-17.042 -15.519,19.803 22.088,28.277 h 34.18 l 22.088,-28.277 -39.606,-50.461 z"
         fill="#75293d"
         id="path43"
         style="stroke-width:11.0497" />
      <path
         d="m 460.257,135.269 c -4.666,0 -8.569,-3.904 -8.569,-8.569 0,-4.665 3.903,-8.569 8.569,-8.569 4.665,0 8.568,3.904 8.568,8.569 0,4.665 -3.903,8.569 -8.568,8.569 z m 0,-24.088 c -8.95,0 -15.9,6.95 -15.9,15.9 0,8.569 6.95,15.9 15.9,15.9 8.949,0 15.899,-6.951 15.899,-15.9 0,-8.95 -6.95,-15.9 -15.899,-15.9 z"
         fill="#75293d"
         id="path45"
         style="stroke-width:11.0497" />
      <path
         d="m 373.807,13.7823 c 4.665,0 8.569,3.9036 8.569,8.5688 0,4.6652 -3.904,8.5688 -8.569,8.5688 -4.665,0 -8.569,-3.9036 -8.569,-8.5688 0,-4.6652 3.904,-8.5688 8.569,-8.5688 z m 0,24.0878 c 8.95,0 15.9,-6.9502 15.9,-15.8998 0,-8.5688 -6.95,-15.89993 -15.9,-15.89993 -8.95,0.38084 -15.9,7.33113 -15.9,16.28073 0,8.5688 6.95,15.519 15.9,15.519 z"
         fill="#75293d"
         id="path47"
         style="stroke-width:11.0497" />
      <path
         d="m 278.693,126.7 c 0,-4.665 3.904,-8.569 8.569,-8.569 4.665,0 8.569,3.904 8.569,8.569 0,4.665 -3.904,8.569 -8.569,8.569 -5.046,0 -8.569,-3.904 -8.569,-8.569 z m 24.088,0 c 0,-8.569 -6.95,-15.9 -15.9,-15.9 -8.95,0 -15.9,6.95 -15.9,15.9 0,8.569 6.95,15.9 15.9,15.9 8.95,0 15.9,-6.95 15.9,-15.9 z"
         fill="#75293d"
         id="path49"
         style="stroke-width:11.0497" />
      <path
         d="m 373.807,239.999 c -4.665,0 -8.569,-3.904 -8.569,-8.569 0,-4.665 3.904,-8.569 8.569,-8.569 4.665,0 8.569,3.904 8.569,8.569 -0.096,4.665 -3.904,8.569 -8.569,8.569 z m 0,-24.469 c -8.95,0 -15.9,6.95 -15.9,15.9 0,8.569 6.95,15.9 15.9,15.9 8.95,0 15.9,-6.951 15.9,-15.9 0,-8.474 -7.046,-15.9 -15.9,-15.9 z"
         fill="#75293d"
         id="path51"
         style="stroke-width:11.0497" />
      <path
         d="m 524.332,99.9463 c 0,-8.5688 6.189,-16.2807 15.519,-16.2807 5.427,0 8.569,1.5233 11.616,4.2844 l -2.285,2.761 c -2.285,-1.9041 -5.047,-3.5227 -9.331,-3.5227 -6.95,0 -11.996,5.8078 -11.996,12.758 0,7.3307 4.665,12.7577 12.377,12.7577 3.523,0 6.95,-1.523 8.95,-3.142 v -7.712 h -9.331 v -3.1414 h 12.758 v 12.3774 c -2.761,2.761 -7.331,4.665 -12.377,4.665 -9.711,0.476 -15.9,-6.855 -15.9,-15.8047 z"
         fill="#75293d"
         id="path53"
         style="stroke-width:11.0497" />
      <path
         d="m 592.597,99.9463 c 0,-6.9502 -5.046,-12.758 -12.377,-12.758 -6.951,0 -11.997,5.8078 -11.997,12.758 0,6.9507 5.046,12.7577 12.378,12.7577 7.331,0 11.996,-5.331 11.996,-12.7577 z m -28.277,0 c 0,-8.5688 6.569,-16.2807 15.9,-16.2807 9.33,0 15.9,7.3311 15.9,15.8999 0,8.5685 -6.57,16.2805 -15.9,16.2805 -9.331,0.381 -15.9,-6.95 -15.9,-15.8997 z"
         fill="#75293d"
         id="path55"
         style="stroke-width:11.0497" />
      <path
         d="M 622.111,101.47 H 612.4 v 10.853 h 10.473 c 4.665,0 7.807,-1.904 7.807,-5.426 -0.095,-3.428 -3.142,-5.427 -8.569,-5.427 z m 6.57,-8.8548 c 0,-3.1419 -2.285,-5.0461 -6.95,-5.0461 H 612.4 v 10.8538 h 9.331 c 4.189,0 6.95,-1.9993 6.95,-5.8077 z m -19.804,-8.188 h 13.234 c 3.523,0 6.189,1.1425 8.188,2.7611 1.143,1.1425 1.905,3.1419 1.905,5.0461 0,3.9035 -2.285,6.1885 -5.047,7.3311 3.904,1.1425 6.57,3.1415 6.57,7.3315 0,5.426 -4.665,8.568 -11.235,8.568 H 608.497 V 84.4272 Z"
         fill="#75293d"
         id="path57"
         style="stroke-width:11.0497" />
      <path
         d="m 650.008,84.4272 h -3.523 v 31.0378 h 3.523 z"
         fill="#75293d"
         id="path59"
         style="stroke-width:11.0497" />
      <path
         d="m 664.384,84.4272 h 22.47 v 3.1419 h -18.947 v 10.8538 h 17.042 v 3.0471 h -17.042 v 10.853 h 19.327 v 3.142 h -22.85 z"
         fill="#75293d"
         id="path61"
         style="stroke-width:11.0497" />
      <path
         d="m 712.084,100.327 c 4.665,0 8.188,-2.2849 8.188,-6.5693 0,-3.9036 -3.142,-6.1886 -8.188,-6.1886 h -9.711 V 100.327 Z M 698.945,84.4272 h 13.615 c 3.903,0 6.95,1.1425 8.95,3.1419 1.523,1.5234 2.285,3.9036 2.285,6.1886 0,5.0461 -3.523,8.1883 -8.569,8.9493 l 9.711,12.758 h -4.284 l -8.95,-11.996 h -8.95 v 11.996 h -3.522 V 84.4272 c 0.095,0 -0.286,0 -0.286,0 z"
         fill="#75293d"
         id="path63"
         style="stroke-width:11.0497" />
      <path
         d="m 736.172,84.4272 h 3.427 l 19.423,24.8498 V 84.4272 h 3.522 v 31.0378 h -2.761 L 739.599,89.8541 v 25.6109 h -3.427 z"
         fill="#75293d"
         id="path65"
         style="stroke-width:11.0497" />
      <path
         d="m 803.294,99.9463 c 0,-6.9502 -5.046,-12.758 -12.377,-12.758 -6.951,0 -11.997,5.8078 -11.997,12.758 0,6.9507 5.046,12.7577 12.378,12.7577 7.331,0 11.996,-5.331 11.996,-12.7577 z m -27.992,0 c 0,-8.5688 6.57,-16.2807 15.9,-16.2807 9.331,0 15.9,7.3311 15.9,15.8999 0,8.5685 -6.569,16.2805 -15.9,16.2805 -9.616,0.381 -15.9,-6.95 -15.9,-15.8997 z"
         fill="#75293d"
         id="path67"
         style="stroke-width:11.0497" />
      <path
         d="m 839.378,87.5691 v 24.8499 h 7.331 c 7.807,0 12.758,-5.427 12.758,-12.378 0,-6.9498 -5.046,-12.3767 -12.758,-12.3767 0,-0.0952 -7.331,-0.0952 -7.331,-0.0952 z m -3.523,-3.1419 h 10.854 c 9.711,0 16.662,6.5695 16.662,15.5191 0,8.9497 -6.57,15.5187 -16.662,15.5187 h -10.854 z"
         fill="#75293d"
         id="path69"
         style="stroke-width:11.0497" />
      <path
         d="m 874.701,84.4272 h 22.469 v 3.1419 h -19.042 v 10.8538 h 17.043 v 3.0471 h -17.043 v 10.853 h 19.042 v 3.142 h -22.469 z"
         fill="#75293d"
         id="path71"
         style="stroke-width:11.0497" />
      <path
         d="m 925.447,84.4272 h 3.523 v 27.8958 h 17.423 v 3.142 h -20.946 z"
         fill="#75293d"
         id="path73"
         style="stroke-width:11.0497" />
      <path
         d="m 976.669,104.231 -6.95,-15.9002 -6.95,15.9002 z m -8.473,-20.1846 h 3.142 l 14.376,31.4186 h -3.903 l -3.523,-8.188 h -17.043 l -3.903,8.188 h -3.523 z"
         fill="#75293d"
         id="path75"
         style="stroke-width:11.0497" />
      <path
         d="m 523.951,153.454 c 0,-8.95 6.57,-16.281 16.281,-16.281 5.808,0 9.33,1.904 12.377,4.665 l -4.284,5.046 c -2.285,-2.285 -5.046,-3.522 -8.188,-3.522 -5.427,0 -8.95,4.284 -8.95,9.711 0,5.427 3.904,9.711 8.95,9.711 3.522,0 5.807,-1.523 8.188,-3.523 l 4.284,4.285 c -3.142,3.523 -6.569,5.427 -12.758,5.427 -9.33,0.857 -15.9,-6.57 -15.9,-15.519 z"
         fill="#75293d"
         id="path77"
         style="stroke-width:11.0497" />
      <path
         d="m 564.986,137.935 h -6.95 v 31.038 h 6.95 z"
         fill="#75293d"
         id="path79"
         style="stroke-width:11.0497" />
      <path
         d="M 573.174,155.834 V 138.03 h 6.95 v 17.804 c 0,5.046 2.761,7.712 6.57,7.712 4.284,0 6.569,-2.761 6.569,-7.331 v -17.804 h 6.95 v 17.423 c 0,9.33 -5.426,13.996 -13.614,13.996 -8.379,0 -13.425,-4.666 -13.425,-13.996 z"
         fill="#75293d"
         id="path81"
         style="stroke-width:11.0497" />
      <path
         d="m 620.112,162.784 c 5.427,0 9.331,-3.903 9.331,-9.33 0,-5.427 -3.904,-9.331 -9.331,-9.331 h -5.427 v 19.042 z m -11.996,-24.849 h 11.996 c 9.711,0 16.662,6.569 16.662,15.519 0,8.949 -6.57,15.519 -16.662,15.519 h -11.996 z"
         fill="#75293d"
         id="path83"
         style="stroke-width:11.0497" />
      <path
         d="m 659.338,156.215 -4.284,-10.092 -4.285,10.092 z m -7.426,-18.661 h 6.188 l 13.234,31.419 h -6.95 l -2.761,-6.95 h -13.234 l -2.761,6.95 h -6.95 z"
         fill="#75293d"
         id="path85"
         style="stroke-width:11.0497" />
      <path
         d="m 688.853,162.784 c 5.427,0 9.33,-3.903 9.33,-9.33 0,-5.427 -3.903,-9.331 -9.33,-9.331 h -5.427 v 19.042 z m -12.092,-24.849 h 11.997 c 9.711,0 16.661,6.569 16.661,15.519 0,8.949 -6.569,15.519 -16.661,15.519 h -11.997 z"
         fill="#75293d"
         id="path87"
         style="stroke-width:11.0497" />
      <path
         d="m 737.695,162.784 c 5.427,0 9.33,-3.903 9.33,-9.33 0,-5.427 -3.903,-9.331 -9.33,-9.331 h -5.427 v 19.042 z m -12.377,-24.849 h 11.996 c 9.711,0 16.662,6.569 16.662,15.519 0,8.949 -6.57,15.519 -16.662,15.519 h -11.996 z"
         fill="#75293d"
         id="path89"
         style="stroke-width:11.0497" />
      <path
         d="m 760.545,137.935 h 23.707 v 6.283 h -16.661 v 6.189 h 14.757 v 6.189 h -14.757 v 6.569 h 16.661 v 5.808 h -23.707 z"
         fill="#75293d"
         id="path91"
         style="stroke-width:11.0497" />
      <path
         d="m 804.436,137.935 h 7.331 l 8.188,13.234 8.188,-13.234 h 7.331 v 31.038 h -6.569 v -20.089 l -8.95,13.138 -8.949,-13.138 v 20.089 h -6.57 z"
         fill="#75293d"
         id="path93"
         style="stroke-width:11.0497" />
      <path
         d="m 856.801,127.462 5.808,2.761 -5.808,5.427 h -5.046 z m -13.139,10.473 h 23.707 v 6.188 h -16.661 v 6.189 h 14.757 v 6.188 h -14.757 v 6.57 h 17.042 v 6.188 h -23.707 z"
         fill="#75293d"
         id="path95"
         style="stroke-width:11.0497" />
      <path
         d="M 882.793,153.073 872.32,137.935 h 8.188 l 6.57,10.092 6.569,-10.092 h 7.807 l -10.473,15.138 10.854,15.9 h -8.188 l -6.95,-10.473 -7.046,10.473 h -7.711 z"
         fill="#75293d"
         id="path97"
         style="stroke-width:11.0497" />
      <path
         d="m 914.212,137.935 h -6.95 v 31.038 h 6.95 z"
         fill="#75293d"
         id="path99"
         style="stroke-width:11.0497" />
      <path
         d="m 920.401,153.454 c 0,-8.95 6.569,-16.281 16.281,-16.281 5.807,0 9.33,1.904 12.377,4.665 l -4.285,5.046 c -2.285,-2.285 -5.046,-3.522 -8.188,-3.522 -5.427,0 -8.949,4.284 -8.949,9.711 0,5.427 3.903,9.711 8.949,9.711 3.523,0 5.808,-1.523 8.188,-3.523 l 4.285,4.285 c -3.142,3.523 -6.57,5.427 -12.758,5.427 -8.855,0.857 -15.9,-6.57 -15.9,-15.519 z"
         fill="#75293d"
         id="path101"
         style="stroke-width:11.0497" />
      <path
         d="m 978.669,153.454 c 0,-5.427 -3.904,-10.092 -9.331,-10.092 -5.427,0 -9.33,4.284 -9.33,9.711 0,5.427 3.903,9.711 9.33,9.711 5.427,0.381 9.331,-3.903 9.331,-9.33 z m -25.992,0 c 0,-8.95 6.95,-16.281 16.661,-16.281 9.711,0 16.662,7.331 16.662,15.9 0,8.949 -6.951,16.281 -16.662,16.281 -9.711,0 -16.661,-6.951 -16.661,-15.9 z"
         fill="#75293d"
         id="path103"
         style="stroke-width:11.0497" />
    </g>
    <path
       style="fill:none;stroke:#898d8d;stroke-width:0.264583;stroke-linecap:butt;stroke-linejoin:miter;stroke-miterlimit:4;stroke-dasharray:none;stroke-opacity:1"
       d="M 60.986458,7.0353632 V 16.782329"
       id="path546"
       sodipodi:nodetypes="cc" />
    <g
       id="g7984"
       transform="matrix(0.26458334,0,0,0.26458334,-66.817477,-3.8314855)"
       style="fill:none">
      <text
         xml:space="preserve"
         style="font-style:normal;font-weight:normal;font-size:9.33333px;line-height:1.25;font-family:sans-serif;letter-spacing:0px;word-spacing:0px;fill:#898d8d;fill-opacity:1;stroke:none"
         x="490.97049"
         y="66.024361"
         id="text1863"><tspan
           sodipodi:role="line"
           id="tspan1861"
           x="490.97049"
           y="66.024361"
           style="font-style:normal;font-variant:normal;font-weight:normal;font-stretch:normal;font-size:18.6667px;font-family:Gotham;-inkscape-font-specification:Gotham;fill:#898d8d;fill-opacity:1">FONDESO</tspan><tspan
           sodipodi:role="line"
           x="490.97049"
           y="80.606117"
           style="font-style:normal;font-variant:normal;font-weight:normal;font-stretch:normal;font-size:9.33333px;font-family:Gotham;-inkscape-font-specification:Gotham;fill:#898d8d;fill-opacity:1"
           id="tspan2860" /></text>
    </g>
  </g>
</svg>
